<svg width="2965" height="1626" viewBox="0 0 2965 1626" fill="none" xmlns="http://www.w3.org/2000/svg">
<path d="M230.4 1619.4C230.4 1619.4 -107.1 1257.1 173.3 864.8C422.1 516.7 712.2 540.5 925 681.8C1015.6 742 1277 689.2 1499.4 335C1802.7 -148 2854.2 144.9 2662.4 888C2569.6 1247.6 2944.7 1260.7 2753.6 1620.1L230.4 1619.4Z" fill="#EBF3FA"/>
<path d="M503.11 1128.58L264.269 1348.39L484.088 1587.24L722.929 1367.42L503.11 1128.58Z" fill="#DFEBFD"/>
<path d="M503.126 1128.64L264.286 1348.46L308.575 1396.58L547.415 1176.76L503.126 1128.64Z" fill="#BED7FB"/>
<path d="M765.1 1279.5L928.9 1302.8L820.2 1228.7L814.7 1252.5L774.9 1259.7L765.1 1279.5Z" fill="#9EC3F6"/>
<path d="M928.9 1302.8L792.6 1232.6L659 1225.8L928.9 1302.8Z" fill="#CDE0FB"/>
<path d="M820.2 1228.7L928.9 1302.8L844.8 1187L820.2 1228.7Z" fill="#CDE0FB"/>
<path d="M2481.26 840L2443.46 839.1C2455.56 854.8 2458.36 869.3 2450.76 881.6C2443.16 894.1 2425.16 904.4 2398.16 912.2C2418.56 857.8 2428.86 800.5 2428.86 741.7C2428.86 614.5 2379.36 490 2285.96 396.9C2195.56 306.5 2073.36 254 1941.16 254C1866.96 254 1795.16 270.5 1729.96 301.9C1729.96 301.9 1729.96 301.9 1729.86 301.9C1708.86 295.5 1688.46 290.3 1668.76 286.3C1569.26 266.1 1498.66 280.1 1469.96 325.6C1442.66 368.9 1457.56 434.1 1511.66 510.1C1499.56 532.5 1487.86 559 1479.36 584.4C1377.46 590.5 1322.96 608.4 1303.16 640.8C1280.16 678.6 1311.56 729.2 1412.26 778.5C1426.16 785.3 1440.96 792 1456.56 798.7C1468.66 904.7 1516.86 1007.4 1596.06 1086.6C1640.86 1131.3 1693.06 1166.5 1751.06 1191.1C1928.96 1266.1 2141.06 1231 2285.86 1086.6C2329.46 1043 2363.96 992.2 2388.36 936C2438.06 925.7 2470.66 909.6 2483.66 888.3C2492.86 873.7 2491.76 857.3 2481.26 840ZM2364.66 919.9C2331.56 925.8 2290.36 929.3 2242.16 929.8C2167.46 930.7 2081.56 924.8 1991.16 912.9C1998.76 896.3 2006.26 879.3 2013.56 861.9C2041.66 871.3 2068.86 878.7 2094.86 884C2124.66 890 2151.76 893 2176.06 893C2232.86 893 2273.56 876.6 2293.76 844.7C2297.06 839.4 2299.76 833.9 2301.86 828H2272.86C2272.36 828.9 2271.86 829.8 2271.36 830.6C2256.46 854.3 2223.06 866.6 2176.16 866.5C2153.76 866.5 2128.26 863.7 2100.16 858C2075.76 853 2050.06 846.1 2023.66 837.3C2030.66 819.8 2037.46 802.1 2043.96 784C2061.66 735.3 2076.76 687 2088.96 640.7C2188.06 655.3 2291.56 655.7 2391.06 648.2C2397.36 678.7 2400.56 709.9 2400.56 741.6C2400.46 803.5 2388.46 863.4 2364.66 919.9ZM1761.16 1161.7C1747.06 1156.6 1739.96 1136.4 1736.36 1120.3C1730.76 1094.9 1729.76 1059.3 1733.46 1017.2C1735.36 995.9 1738.26 973.3 1742.26 949.6C1799.96 965 1857.16 984.8 1912.86 1008.6C1900.36 1030.2 1887.66 1050.3 1874.96 1068.5C1850.76 1103.1 1827.16 1129.9 1806.66 1145.8C1793.66 1155.8 1775.26 1166.8 1761.16 1161.7ZM1925.66 986C1867.46 960.8 1807.46 940.1 1746.96 924.1C1749.06 913.1 1751.46 901.9 1753.96 890.6C1770.76 894.4 1787.86 898.1 1805.16 901.7C1855.76 912 1906.16 920.8 1955.56 927.9C1945.76 948.1 1935.86 967.5 1925.66 986ZM1816.26 883.3C1796.76 879.3 1777.46 875.1 1758.56 870.7C1767.46 833.6 1778.46 795 1791.16 755.6C1857.56 796.4 1925.16 829.6 1989.06 853.2C1981.06 872.4 1972.76 891 1964.36 909.1C1915.86 902.2 1866.16 893.6 1816.26 883.3ZM1654.06 382.9C1690.96 458.5 1762.16 520.9 1838.66 562.2C1820.06 602.6 1802.46 645.8 1786.16 690.6C1783.16 699 1780.16 707.3 1777.26 715.6C1680.26 652.4 1598.06 580 1544.16 509.8C1572.76 461.2 1609.76 418.4 1654.06 382.9ZM2068.96 312.9C2083.06 318 2090.16 338.2 2093.76 354.3C2099.36 379.7 2100.36 415.3 2096.66 457.4C2092.66 503.5 2083.46 555.8 2069.66 611.5C2002.16 599.9 1934.76 580.7 1872.66 550.6C1899.16 495.4 1927.06 446.2 1955.06 406.1C1979.26 371.5 2002.86 344.7 2023.36 328.8C2034.06 320.5 2048.46 311.6 2061.16 311.6C2063.96 311.6 2066.56 312 2068.96 312.9ZM2063.26 636.5C2051.36 681.3 2036.66 728 2019.56 775.1C2012.96 793.3 2006.16 811.2 1999.16 828.7C1934.96 805.1 1866.76 771.4 1799.76 729.8C1803.26 719.7 1806.76 709.5 1810.46 699.3C1826.36 655.5 1843.56 613.4 1861.66 573.9C1924.96 604.6 1993.46 624.4 2063.26 636.5ZM2265.86 416.8C2325.46 476.4 2364.96 547.9 2384.96 622.8C2279.06 630.5 2182.06 628.1 2095.26 615.6C2109.06 559.4 2118.26 506.4 2122.36 459.7C2126.86 408.1 2126.26 347 2105.36 312.6C2166.06 335.8 2220.16 370.9 2265.86 416.8ZM1941.16 282.2C1972.96 282.2 2004.26 285.4 2034.86 291.8C1998.76 307.5 1961.96 351.2 1933.96 391.3C1905.36 432.3 1876.76 482.6 1849.76 538.8C1776.86 499.2 1708.06 438.5 1675.16 367C1751.96 312.3 1844.36 282.2 1941.16 282.2ZM1492.26 339.7C1507.16 316 1540.56 303.8 1587.46 303.8C1609.86 303.8 1635.36 306.6 1663.46 312.3C1674.06 314.5 1684.96 317 1696.06 319.9C1629.16 358.6 1570.26 414.6 1526.36 484.8C1484.86 423.3 1472.46 371.2 1492.26 339.7ZM1530.56 535.1C1587.36 606 1670.96 678.5 1768.66 741.4C1754.76 783.6 1742.96 825 1733.46 864.8C1652.46 845.2 1558.26 817.5 1483.86 786C1477.66 724.3 1484.36 661.9 1502.96 603C1510.06 580.2 1519.66 556.6 1530.56 535.1ZM1434.86 764C1347.06 721.1 1306.96 679.8 1324.86 650.4C1339.36 626.6 1392.06 610.5 1472.86 604.6C1456.56 659.5 1450.96 716.6 1454.26 773.1C1447.56 770.2 1441.16 767.1 1434.86 764ZM1728.86 884.7C1726.36 895.9 1724.06 906.9 1721.96 917.7C1716.36 916.3 1710.66 915 1705.06 913.7C1609.76 892 1538.26 887.6 1505.06 886.8C1496.86 862.1 1490.86 836.8 1486.96 810.9C1551.86 836 1624.96 859.9 1728.86 884.7ZM1514.66 913.1C1550.06 914.5 1615.56 919.9 1699.26 938.9C1705.26 940.3 1711.26 941.7 1717.26 943.2C1712.96 968.3 1709.76 992.4 1707.76 1014.9C1704.06 1057.7 1703.76 1107 1715.66 1142.2C1679.36 1121.8 1646.06 1096.5 1616.16 1066.6C1571.66 1022 1537.36 969.9 1514.66 913.1ZM1801.76 1179.7C1835.76 1161.9 1869.86 1121 1896.16 1083.3C1909.76 1063.9 1923.26 1042.3 1936.66 1019.1C2013.86 1054 2087.96 1097 2157.66 1147C2042.86 1208.3 1913.56 1215.3 1801.76 1179.7ZM2265.86 1066.6C2240.46 1092.1 2212.46 1114.2 2182.26 1132.8C2109.06 1079.3 2030.86 1033.5 1949.36 996.4C1960.56 975.9 1971.56 954.2 1982.36 931.6C2056.96 941.5 2128.66 947.4 2194.16 949C2211.26 949.5 2227.86 949.5 2243.96 949.4C2285.66 948.9 2322.86 946.4 2354.66 942C2332.36 988.1 2302.56 1029.9 2265.86 1066.6Z" fill="#ADCBF9"/>
<path d="M289.4 1120.5L284.6 1123.8C279.5 1127.4 272.4 1126.1 268.9 1120.9L241 1080.6C237.4 1075.5 238.7 1068.4 243.9 1064.9L250.8 1060.1C251.8 1059.4 253.2 1059.7 253.9 1060.7C254.6 1061.7 254.3 1063.1 253.3 1063.8L246.4 1068.6C243.3 1070.8 242.5 1075.1 244.7 1078.2L272.6 1118.5C274.8 1121.6 279.1 1122.4 282.2 1120.2L287 1116.9C290.1 1114.7 290.9 1110.4 288.7 1107.3L270.2 1080.6C269.5 1079.6 269.8 1078.2 270.8 1077.5C271.8 1076.8 273.2 1077.1 273.9 1078.1L292.4 1104.8C295.8 1109.9 294.5 1117 289.4 1120.5Z" fill="#AFCDFB"/>
<path d="M320 1160.2L311.4 1166.2C303.4 1171.7 292.1 1169.3 286.1 1160.7L244.1 1100.1C243.4 1099.1 243.7 1097.7 244.7 1097C245.7 1096.3 247.1 1096.6 247.8 1097.6L289.8 1158.2C294.3 1164.8 302.9 1166.7 308.9 1162.6L317.5 1156.6C323.5 1152.5 324.7 1143.7 320.1 1137.2L272.3 1068.2C267.8 1061.6 259.2 1059.7 253.2 1063.8C252.2 1064.5 250.8 1064.2 250.1 1063.2C249.4 1062.2 249.7 1060.8 250.7 1060.1C258.7 1054.6 270 1057 276 1065.6L323.8 1134.6C329.7 1143.2 328 1154.7 320 1160.2Z" fill="#AFCDFB"/>
<path d="M377.8 1476.6L378.8 1485.1C379.9 1494.2 373.4 1502.5 364.3 1503.6L292.7 1512.3C283.6 1513.4 275.3 1506.9 274.2 1497.8L272.7 1485.6C272.5 1483.8 273.8 1482.2 275.5 1482C277.3 1481.8 278.9 1483.1 279.1 1484.8L280.6 1497C281.3 1502.5 286.3 1506.5 291.9 1505.8L363.5 1497.1C369 1496.4 373 1491.4 372.3 1485.8L371.3 1477.3C370.6 1471.8 365.6 1467.8 360 1468.5L312.5 1474.3C310.7 1474.5 309.1 1473.2 308.9 1471.5C308.7 1469.7 310 1468.1 311.7 1467.9L359.2 1462.1C368.3 1460.9 376.6 1467.5 377.8 1476.6Z" fill="#AFCDFB"/>
<path d="M450.5 1464L452.4 1479.3C454.1 1493.5 443.1 1506.6 427.9 1508.4L320.3 1521.5C318.5 1521.7 316.9 1520.4 316.7 1518.7C316.5 1516.9 317.8 1515.3 319.5 1515.1L427.1 1502C438.7 1500.6 447.2 1490.8 445.9 1480.1L444 1464.8C442.7 1454.2 432.2 1446.7 420.5 1448.1L297.9 1463C286.3 1464.4 277.8 1474.2 279.1 1484.9C279.3 1486.7 278 1488.3 276.3 1488.5C274.5 1488.7 272.9 1487.4 272.7 1485.7C271 1471.5 282 1458.4 297.2 1456.6L419.8 1441.7C435 1439.7 448.7 1449.8 450.5 1464Z" fill="#AFCDFB"/>
<path d="M1617.19 465.939C1618.44 460.618 1615.15 455.286 1609.83 454.03C1604.51 452.773 1599.18 456.068 1597.92 461.389C1596.66 466.71 1599.96 472.042 1605.28 473.299C1610.6 474.555 1615.93 471.26 1617.19 465.939Z" fill="#F99746"/>
<path d="M897.808 1441.18L889.744 1444.64L871.568 1418.4H860.816V1495.07L875.28 1498.66L870.672 1508H823.44V1499.81L835.472 1490.34V1418.4H824.976L806.8 1444.64L798.864 1441.18V1405.09L808.72 1407.39H887.824L897.808 1405.09V1441.18ZM939.036 1437.47C948.252 1437.47 955.377 1440.97 960.412 1447.97C965.532 1454.88 968.007 1464.65 967.836 1477.28H922.14C923.079 1481.8 924.828 1485.43 927.388 1488.16C929.948 1490.81 933.276 1492.13 937.372 1492.13C943.431 1492.13 952.263 1489.53 963.868 1484.32L967.708 1492.26L949.276 1507.1C943.9 1508.55 937.457 1509.28 929.948 1509.28C923.548 1509.28 917.788 1507.83 912.668 1504.93C907.548 1501.94 903.537 1497.89 900.636 1492.77C897.82 1487.65 896.412 1481.93 896.412 1475.62C896.412 1468.79 898.631 1462.47 903.068 1456.67C907.505 1450.78 913.052 1446.13 919.708 1442.72C926.364 1439.22 932.807 1437.47 939.036 1437.47ZM932.124 1453.47C928.625 1453.47 925.98 1454.67 924.188 1457.06C922.481 1459.36 921.543 1462.94 921.372 1467.81H944.156C943.644 1462.94 942.492 1459.36 940.7 1457.06C938.908 1454.67 936.049 1453.47 932.124 1453.47ZM1021.73 1437.47C1025.91 1437.47 1030.73 1437.98 1036.19 1439.01C1041.65 1439.95 1045.66 1441.01 1048.22 1442.21V1467.17H1039.13C1035.98 1462.9 1032.39 1459.57 1028.38 1457.18C1024.37 1454.71 1020.15 1453.47 1015.71 1453.47C1012.89 1453.47 1010.68 1454.88 1009.05 1457.7C1007.43 1460.43 1006.62 1464.35 1006.62 1469.47C1006.62 1475.96 1007.99 1481.38 1010.72 1485.73C1013.53 1489.99 1017.5 1492.13 1022.62 1492.13C1028.34 1492.13 1036.66 1489.7 1047.58 1484.83L1051.42 1492.77L1033.5 1507.1C1028.38 1508.55 1022.28 1509.28 1015.2 1509.28C1008.8 1509.28 1003.04 1507.83 997.918 1504.93C992.798 1501.94 988.787 1497.89 985.886 1492.77C983.07 1487.65 981.662 1481.93 981.662 1475.62C981.662 1468.79 983.71 1462.47 987.806 1456.67C991.987 1450.78 997.193 1446.13 1003.42 1442.72C1009.74 1439.22 1015.84 1437.47 1021.73 1437.47ZM1145.44 1508H1114.84V1467.81C1114.84 1463.97 1114.25 1461.24 1113.05 1459.62C1111.94 1457.99 1109.98 1457.18 1107.16 1457.18C1103.15 1457.18 1099.1 1458.34 1095 1460.64V1494.94L1106.52 1498.66L1101.92 1508H1059.93V1499.81L1071.32 1490.08V1422.75L1059.93 1415.2V1407.01L1085.92 1396.26H1095V1449.25L1108.32 1438.5C1110.62 1437.81 1113.31 1437.47 1116.38 1437.47C1123.12 1437.47 1128.5 1439.26 1132.51 1442.85C1136.52 1446.35 1138.52 1451.13 1138.52 1457.18V1494.94L1150.04 1498.66L1145.44 1508ZM1241.75 1507.87H1211.15V1467.68C1211.15 1463.84 1210.56 1461.11 1209.36 1459.49C1208.25 1457.87 1206.29 1457.06 1203.47 1457.06C1199.46 1457.06 1195.41 1458.21 1191.31 1460.51V1494.82L1202.83 1498.53L1198.23 1507.87H1156.24V1499.68L1167.63 1489.95V1463.07L1156.24 1455.78V1447.58L1184.4 1436.32L1189.52 1450.66L1204.63 1438.5C1206.93 1437.81 1209.62 1437.47 1212.69 1437.47C1219.43 1437.47 1224.81 1439.26 1228.82 1442.85C1232.83 1446.35 1234.83 1451.13 1234.83 1457.18V1494.94L1246.35 1498.53L1241.75 1507.87ZM1294.48 1508H1252.49V1499.81L1263.88 1490.08V1462.82L1252.49 1455.26V1447.2L1278.48 1436.32H1287.56V1494.94L1299.08 1498.66L1294.48 1508ZM1275.66 1397.66C1279.67 1397.66 1282.91 1398.94 1285.39 1401.5C1287.95 1403.98 1289.23 1407.05 1289.23 1410.72C1289.23 1413.37 1288.29 1415.84 1286.41 1418.14C1284.62 1420.36 1282.32 1422.15 1279.5 1423.52C1276.77 1424.89 1274.12 1425.57 1271.56 1425.57C1267.64 1425.57 1264.35 1424.33 1261.71 1421.86C1259.15 1419.3 1257.87 1416.18 1257.87 1412.51C1257.87 1409.87 1258.76 1407.43 1260.56 1405.22C1262.43 1402.91 1264.78 1401.08 1267.6 1399.71C1270.41 1398.35 1273.1 1397.66 1275.66 1397.66ZM1347.35 1437.47C1351.53 1437.47 1356.35 1437.98 1361.82 1439.01C1367.28 1439.95 1371.29 1441.01 1373.85 1442.21V1467.17H1364.76C1361.6 1462.9 1358.02 1459.57 1354.01 1457.18C1350 1454.71 1345.77 1453.47 1341.34 1453.47C1338.52 1453.47 1336.3 1454.88 1334.68 1457.7C1333.06 1460.43 1332.25 1464.35 1332.25 1469.47C1332.25 1475.96 1333.61 1481.38 1336.34 1485.73C1339.16 1489.99 1343.13 1492.13 1348.25 1492.13C1353.96 1492.13 1362.28 1489.7 1373.21 1484.83L1377.05 1492.77L1359.13 1507.1C1354.01 1508.55 1347.91 1509.28 1340.82 1509.28C1334.42 1509.28 1328.66 1507.83 1323.54 1504.93C1318.42 1501.94 1314.41 1497.89 1311.51 1492.77C1308.7 1487.65 1307.29 1481.93 1307.29 1475.62C1307.29 1468.79 1309.34 1462.47 1313.43 1456.67C1317.61 1450.78 1322.82 1446.13 1329.05 1442.72C1335.36 1439.22 1341.46 1437.47 1347.35 1437.47ZM1464.15 1508H1433.56V1496.86L1419.09 1508.26C1417.39 1508.94 1415.25 1509.28 1412.69 1509.28C1404.25 1509.28 1398.14 1507.23 1394.39 1503.14C1390.63 1498.95 1388.76 1493.96 1388.76 1488.16C1388.76 1484.83 1389.78 1481.55 1391.83 1478.3C1393.88 1475.06 1396.78 1472.07 1400.53 1469.34H1433.56V1468.83C1433.56 1464.39 1432.32 1461.11 1429.85 1458.98C1427.46 1456.76 1424.26 1455.65 1420.25 1455.65C1414.36 1455.65 1406.12 1457.7 1395.54 1461.79L1391.7 1453.86L1409.37 1439.65C1413.89 1438.2 1419.22 1437.47 1425.37 1437.47C1435.43 1437.47 1443.24 1439.73 1448.79 1444.26C1454.42 1448.78 1457.24 1455.35 1457.24 1463.97V1494.18L1468.76 1498.66L1464.15 1508ZM1419.99 1490.08C1424 1490.08 1428.52 1488.46 1433.56 1485.22V1478.69H1413.46C1412.52 1480.22 1412.05 1481.89 1412.05 1483.68C1412.05 1485.64 1412.74 1487.22 1414.1 1488.42C1415.55 1489.53 1417.51 1490.08 1419.99 1490.08ZM1514.29 1508H1472.31V1499.81L1483.7 1490.08V1422.75L1472.31 1415.2V1407.01L1498.29 1396.26H1507.38V1494.94L1518.9 1498.66L1514.29 1508ZM1715.06 1508H1633.01V1499.81L1645.04 1490.34V1420.7L1630.7 1416.61L1635.31 1407.39H1713.78L1723.76 1405.09V1438.62L1715.7 1442.08L1699.82 1418.4H1670.38V1451.17H1684.21L1693.55 1437.34H1701.74V1474.21L1692.4 1478.82L1683.95 1462.05H1670.38V1496.99H1698.67L1716.98 1470.75L1725.04 1474.08V1510.3L1715.06 1508ZM1823.12 1507.87H1792.53V1467.68C1792.53 1463.84 1791.93 1461.11 1790.74 1459.49C1789.63 1457.87 1787.67 1457.06 1784.85 1457.06C1780.84 1457.06 1776.79 1458.21 1772.69 1460.51V1494.82L1784.21 1498.53L1779.6 1507.87H1737.62V1499.68L1749.01 1489.95V1463.07L1737.62 1455.78V1447.58L1765.78 1436.32L1770.9 1450.66L1786 1438.5C1788.31 1437.81 1790.99 1437.47 1794.07 1437.47C1800.81 1437.47 1806.18 1439.26 1810.19 1442.85C1814.2 1446.35 1816.21 1451.13 1816.21 1457.18V1494.94L1827.73 1498.53L1823.12 1507.87ZM1898.51 1452.32C1899.7 1454.88 1900.3 1457.53 1900.3 1460.26C1900.3 1465.38 1898.08 1470.33 1893.64 1475.1C1889.29 1479.88 1883.87 1483.51 1877.39 1485.98C1875.08 1488.71 1873.93 1491.27 1873.93 1493.66C1873.93 1494.86 1874.83 1496.05 1876.62 1497.25C1878.5 1498.36 1881.36 1499.77 1885.2 1501.47C1891 1504.12 1895.44 1506.55 1898.51 1508.77C1901.66 1510.99 1903.24 1513.55 1903.24 1516.45C1903.24 1519.18 1901.49 1522.59 1898 1526.69C1894.58 1530.78 1890.32 1534.33 1885.2 1537.31C1880.08 1540.38 1875.08 1541.92 1870.22 1541.92C1864.84 1541.92 1858.49 1541.11 1851.15 1539.49C1843.81 1537.87 1837.71 1536.25 1832.84 1534.62V1510.82H1841.8C1845.73 1516.36 1849.74 1520.54 1853.84 1523.36C1858.02 1526.26 1862.71 1527.71 1867.92 1527.71C1870.56 1527.71 1872.78 1527.2 1874.57 1526.18C1876.36 1525.24 1877.26 1524.17 1877.26 1522.98C1877.26 1521.1 1876.15 1519.39 1873.93 1517.86C1871.8 1516.41 1868.51 1514.7 1864.08 1512.74C1859.21 1510.52 1855.5 1508.55 1852.94 1506.85C1850.46 1505.06 1849.23 1502.97 1849.23 1500.58C1849.23 1498.53 1850.85 1496.44 1854.09 1494.3C1857.42 1492.17 1861.34 1490.29 1865.87 1488.67C1865.1 1488.76 1863.95 1488.8 1862.41 1488.8C1857.12 1488.8 1852.21 1487.78 1847.69 1485.73C1843.17 1483.59 1839.58 1480.82 1836.94 1477.41C1834.38 1473.91 1833.1 1470.2 1833.1 1466.27C1833.1 1461.41 1834.98 1456.76 1838.73 1452.32C1842.49 1447.88 1847.31 1444.3 1853.2 1441.57C1859.08 1438.84 1865.06 1437.47 1871.12 1437.47C1878.2 1437.47 1884.38 1439.18 1889.68 1442.59H1911.18V1452.32H1898.51ZM1856.14 1460.26C1856.14 1464.01 1857.38 1467.08 1859.85 1469.47C1862.41 1471.86 1865.7 1473.06 1869.71 1473.06C1874.83 1473.06 1877.39 1470.79 1877.39 1466.27C1877.39 1462.43 1876.11 1459.4 1873.55 1457.18C1871.07 1454.88 1867.74 1453.73 1863.56 1453.73C1858.61 1453.73 1856.14 1455.9 1856.14 1460.26ZM1955.17 1508H1913.18V1499.81L1924.57 1490.08V1422.75L1913.18 1415.2V1407.01L1939.17 1396.26H1948.25V1494.94L1959.77 1498.66L1955.17 1508ZM2007.98 1508H1965.99V1499.81L1977.38 1490.08V1462.82L1965.99 1455.26V1447.2L1991.98 1436.32H2001.06V1494.94L2012.58 1498.66L2007.98 1508ZM1989.16 1397.66C1993.17 1397.66 1996.41 1398.94 1998.89 1401.5C2001.45 1403.98 2002.73 1407.05 2002.73 1410.72C2002.73 1413.37 2001.79 1415.84 1999.91 1418.14C1998.12 1420.36 1995.82 1422.15 1993 1423.52C1990.27 1424.89 1987.62 1425.57 1985.06 1425.57C1981.14 1425.57 1977.85 1424.33 1975.21 1421.86C1972.65 1419.3 1971.37 1416.18 1971.37 1412.51C1971.37 1409.87 1972.26 1407.43 1974.06 1405.22C1975.93 1402.91 1978.28 1401.08 1981.1 1399.71C1983.91 1398.35 1986.6 1397.66 1989.16 1397.66ZM2054.84 1491.1C2054.84 1489.65 2053.81 1488.2 2051.76 1486.75C2049.8 1485.22 2046.52 1483.13 2041.91 1480.48C2037.47 1477.92 2033.84 1475.7 2031.03 1473.82C2028.21 1471.95 2025.78 1469.81 2023.73 1467.42C2021.77 1465.03 2020.79 1462.47 2020.79 1459.74C2020.79 1456.67 2022.28 1453.39 2025.27 1449.89C2028.34 1446.39 2032.09 1443.45 2036.53 1441.06C2040.97 1438.67 2045.06 1437.47 2048.82 1437.47C2053.34 1437.47 2058.59 1437.98 2064.56 1439.01C2070.62 1439.95 2075.02 1441.01 2077.75 1442.21V1463.97H2068.79C2066.65 1460.04 2064.01 1456.97 2060.85 1454.75C2057.78 1452.53 2054.62 1451.42 2051.38 1451.42C2049.93 1451.42 2048.78 1451.85 2047.92 1452.7C2047.16 1453.47 2046.77 1454.5 2046.77 1455.78C2046.77 1457.4 2047.8 1458.98 2049.84 1460.51C2051.98 1462.05 2055.43 1464.18 2060.21 1466.91C2064.56 1469.39 2068.1 1471.56 2070.84 1473.44C2073.57 1475.23 2075.91 1477.28 2077.88 1479.58C2079.84 1481.89 2080.82 1484.36 2080.82 1487.01C2080.82 1490.17 2079.24 1493.49 2076.08 1496.99C2072.93 1500.41 2069.04 1503.31 2064.44 1505.7C2059.91 1508.09 2055.77 1509.28 2052.02 1509.28C2047.16 1509.28 2041.4 1508.81 2034.74 1507.87C2028.17 1506.85 2023.48 1505.74 2020.66 1504.54V1481.76H2029.62C2032.09 1486.03 2035.12 1489.35 2038.71 1491.74C2042.38 1494.13 2046 1495.33 2049.59 1495.33C2051.12 1495.33 2052.36 1494.94 2053.3 1494.18C2054.32 1493.32 2054.84 1492.3 2054.84 1491.1ZM2173.31 1508H2142.72V1467.81C2142.72 1463.97 2142.12 1461.24 2140.93 1459.62C2139.82 1457.99 2137.86 1457.18 2135.04 1457.18C2131.03 1457.18 2126.98 1458.34 2122.88 1460.64V1494.94L2134.4 1498.66L2129.79 1508H2087.81V1499.81L2099.2 1490.08V1422.75L2087.81 1415.2V1407.01L2113.79 1396.26H2122.88V1449.25L2136.19 1438.5C2138.5 1437.81 2141.18 1437.47 2144.26 1437.47C2151 1437.47 2156.37 1439.26 2160.38 1442.85C2164.39 1446.35 2166.4 1451.13 2166.4 1457.18V1494.94L2177.92 1498.66L2173.31 1508Z" fill="#17586C"/>
<path d="M1392.3 1202.7H1003.9V1065.5H1393.6C1423.9 1065.5 1448.5 1090.1 1448.5 1120.4V1146.6C1448.4 1177.6 1423.2 1202.7 1392.3 1202.7Z" fill="#FCECDB"/>
<path d="M1779.9 1122V1142.6C1779.9 1153.6 1776.9 1164 1771.7 1172.8C1761.3 1190.7 1741.9 1202.7 1719.7 1202.7H991.8C987 1202.7 983.1 1198.8 983.1 1194V1190.9C983.1 1186.1 987 1182.2 991.8 1182.2H1435.5C1437.9 1179.3 1440 1176.2 1441.7 1172.8C1445.9 1165 1448.2 1156 1448.2 1146.6V1120.4C1448.2 1115.6 1447.6 1110.9 1446.4 1106.4C1444.4 1098.8 1440.9 1091.9 1436.1 1086H991.7C986.9 1086 983 1082.1 983 1077.3V1074.2C983 1069.4 986.9 1065.5 991.7 1065.5H1723.2C1749 1065.5 1770.7 1082.8 1777.5 1106.4C1779.1 1111.4 1779.9 1116.6 1779.9 1122Z" fill="#699DEE"/>
<path d="M1777.7 1106.4H1446.5C1444.5 1098.8 1441 1091.9 1436.2 1086H991.8C987 1086 983.1 1082.1 983.1 1077.3V1074.2C983.1 1069.4 987 1065.5 991.8 1065.5H1723.3C1749.2 1065.5 1771 1082.8 1777.7 1106.4Z" fill="#548EE2"/>
<path d="M1003.8 1134.1L1057.7 1136.4L1003.8 1137.8V1134.1Z" fill="#F4D2B8"/>
<path d="M1003.8 1155.6L1132 1157.9L1003.8 1159.3V1155.6Z" fill="#F4D2B8"/>
<path d="M1096.5 1309.1H1510V1202.4H1093.1C1064.6 1202.4 1041.4 1225.5 1041.4 1254.1C1041.4 1284.5 1066.1 1309.1 1096.5 1309.1Z" fill="#2B478B"/>
<path d="M1486.2 1309.1H1956.8V1202.4H1485C1456 1202.4 1432.5 1225.9 1432.5 1254.9V1255.3C1432.5 1285.1 1456.5 1309.1 1486.2 1309.1Z" fill="#FCECDB"/>
<path d="M1401.1 1309.1H1973.2C1977.6 1309.1 1981.2 1305.5 1981.2 1301.1C1981.2 1296.7 1977.6 1293.1 1973.2 1293.1H1401.1C1396.7 1293.1 1393.1 1296.7 1393.1 1301.1C1393.1 1305.6 1396.7 1309.1 1401.1 1309.1Z" fill="#2B478B"/>
<path d="M1401.1 1218.4H1973.2C1977.6 1218.4 1981.2 1214.8 1981.2 1210.4C1981.2 1206 1977.6 1202.4 1973.2 1202.4H1401.1C1396.7 1202.4 1393.1 1206 1393.1 1210.4C1393.1 1214.8 1396.7 1218.4 1401.1 1218.4Z" fill="#2B478B"/>
<path d="M1956.8 1255.8L1893.3 1257.6L1956.8 1258.7V1255.8Z" fill="#F4D2B8"/>
<path d="M1956.8 1231.2L1805.6 1233L1956.8 1234.1V1231.2Z" fill="#F4D2B8"/>
<path d="M1807.1 1232.7C1807.1 1232.7 1813.6 1237.3 1815.7 1244.8C1816.1 1246.1 1816.3 1247.5 1816.4 1249C1816.8 1259 1816.4 1281.7 1816.4 1281.7L1835.5 1270.4L1854.6 1281.7V1251C1854.6 1245.2 1853 1239.5 1849.9 1235.8C1848.4 1234 1846.6 1232.7 1844.6 1232.7H1807.1Z" fill="#699DEE"/>
<path d="M1807.1 1232.7C1807.1 1232.7 1813.6 1237.3 1815.7 1244.8L1854 1245.2C1854 1245.2 1852.5 1234.4 1844.6 1232.6H1807.1V1232.7Z" fill="#568CDB"/>
<path d="M1438.1 1065.8H1860.6V909H1436.7C1402.9 909 1375.4 936.4 1375.4 970.3V1003.2C1375.4 1037.8 1403.5 1065.8 1438.1 1065.8Z" fill="#FCECDB"/>
<path d="M1385.4 969.9V1003.6C1385.5 1018 1393.5 1030.5 1405.2 1037.2C1411 1040.5 1417.6 1042.4 1424.7 1042.4H1883.5C1888.9 1042.4 1893.2 1046.8 1893.2 1052.1V1056.1C1893.2 1061.5 1888.8 1065.8 1883.5 1065.8H1090.9C1068.2 1065.8 1048.1 1054.5 1035.9 1037.2C1028.2 1026.3 1023.8 1013 1023.8 998.7V972.1C1023.8 962.3 1026 953 1030.1 944.7C1040.3 923.6 1061.9 909.1 1086.9 909.1H1883.6C1889 909.1 1893.3 913.5 1893.3 918.8V922.8C1893.3 928.2 1888.9 932.5 1883.6 932.5H1423.4C1412.4 932.5 1402.4 937.2 1395.5 944.7C1389.2 951.3 1385.4 960.1 1385.4 969.9Z" fill="#B5453C"/>
<path d="M1860.6 987.399L1801.8 990.099L1860.6 991.599V987.399Z" fill="#F4D2B8"/>
<path d="M1860.6 951.3L1720.6 954L1860.6 955.6V951.3Z" fill="#F4D2B8"/>
<path d="M1722.1 953.5C1722.1 953.5 1731.3 958.499 1734.4 966.599C1734.9 967.999 1735.3 969.599 1735.4 971.199C1735.9 982.099 1735.4 1006.6 1735.4 1006.6L1762.7 994.3L1789.9 1006.6V973.3C1789.9 967 1787.6 960.9 1783.2 956.9C1781.1 955 1778.6 953.5 1775.7 953.5H1722.1Z" fill="#F99746"/>
<path d="M1722.1 953.5C1722.1 953.5 1731.3 958.499 1734.4 966.599L1789 967.099C1789 967.099 1786.9 955.4 1775.6 953.5H1722.1Z" fill="#ED7D2B"/>
<path d="M1106.6 614.3L970.1 614.8L925.9 445.5L1062.3 445L1106.6 614.3Z" fill="white"/>
<path d="M1028.5 467.2L971.3 467.4L970.6 464.9L1027.8 464.7L1028.5 467.2Z" fill="#ADCBF9"/>
<path d="M1037.6 474.2L965.8 474.5L965.1 472L1037 471.7L1037.6 474.2Z" fill="#ADCBF9"/>
<path d="M1057.4 508.7L964.1 509L963.4 506.5L1056.7 506.2L1057.4 508.7Z" fill="#ADCBF9"/>
<path d="M1059.5 516.9L966.2 517.3L965.6 514.8L1058.9 514.4L1059.5 516.9Z" fill="#ADCBF9"/>
<path d="M1061.7 525.2L968.4 525.5L967.7 523L1061 522.7L1061.7 525.2Z" fill="#ADCBF9"/>
<path d="M1063.8 533.4L970.5 533.8L969.9 531.3L1063.2 530.9L1063.8 533.4Z" fill="#ADCBF9"/>
<path d="M1066 541.7L972.7 542L972 539.5L1065.3 539.2L1066 541.7Z" fill="#ADCBF9"/>
<path d="M1071.2 561.8L977.9 562.1L977.3 559.6L1070.6 559.3L1071.2 561.8Z" fill="#ADCBF9"/>
<path d="M1073.4 570L980.1 570.401L979.5 567.901L1072.7 567.5L1073.4 570Z" fill="#ADCBF9"/>
<path d="M1075.5 578.3L982.3 578.7L981.6 576.1L1074.9 575.8L1075.5 578.3Z" fill="#ADCBF9"/>
<path d="M1077.7 586.601L984.4 586.901L983.8 584.401L1077 584.101L1077.7 586.601Z" fill="#ADCBF9"/>
<path d="M1079.9 594.8L986.6 595.2L985.9 592.7L1079.2 592.3L1079.9 594.8Z" fill="#ADCBF9"/>
<path d="M1161.5 824.8L1025.1 825.3L980.9 655.9L1117.3 655.4L1161.5 824.8Z" fill="white"/>
<path d="M1083.4 677.7L1026.2 677.9L1025.6 675.4L1082.8 675.2L1083.4 677.7Z" fill="#ADCBF9"/>
<path d="M1092.6 684.7L1020.8 684.9L1020.1 682.4L1091.9 682.1L1092.6 684.7Z" fill="#ADCBF9"/>
<path d="M1112.3 719.1L1019 719.5L1018.4 717L1111.7 716.6L1112.3 719.1Z" fill="#ADCBF9"/>
<path d="M1114.5 727.399L1021.2 727.699L1020.5 725.199L1113.8 724.899L1114.5 727.399Z" fill="#ADCBF9"/>
<path d="M1116.6 735.6L1023.4 736L1022.7 733.5L1116 733.1L1116.6 735.6Z" fill="#ADCBF9"/>
<path d="M1118.8 743.899L1025.5 744.199L1024.9 741.699L1118.1 741.399L1118.8 743.899Z" fill="#ADCBF9"/>
<path d="M1121 752.2L1027.7 752.5L1027 750L1120.3 749.6L1121 752.2Z" fill="#ADCBF9"/>
<path d="M1126.2 772.2L1032.9 772.6L1032.3 770.1L1125.6 769.7L1126.2 772.2Z" fill="#ADCBF9"/>
<path d="M1128.4 780.5L1035.1 780.799L1034.4 778.299L1127.7 778L1128.4 780.5Z" fill="#ADCBF9"/>
<path d="M1130.5 788.8L1037.2 789.1L1036.6 786.6L1129.9 786.3L1130.5 788.8Z" fill="#ADCBF9"/>
<path d="M1132.7 797L1039.4 797.4L1038.7 794.9L1132 794.5L1132.7 797Z" fill="#ADCBF9"/>
<path d="M1134.8 805.3L1041.5 805.6L1040.9 803.1L1134.2 802.8L1134.8 805.3Z" fill="#ADCBF9"/>
<path d="M1216.9 1036.7L1080.4 1037.2L1036.2 867.8L1172.6 867.3L1216.9 1036.7Z" fill="white"/>
<path d="M1138.8 889.6L1081.6 889.8L1080.9 887.3L1138.1 887.1L1138.8 889.6Z" fill="#ADCBF9"/>
<path d="M1147.9 896.5L1076.1 896.799L1075.5 894.299L1147.3 894L1147.9 896.5Z" fill="#ADCBF9"/>
<path d="M1167.7 931L1074.4 931.299L1073.7 928.799L1167 928.5L1167.7 931Z" fill="#ADCBF9"/>
<path d="M1169.8 939.2L1076.5 939.6L1075.9 937.1L1169.2 936.7L1169.8 939.2Z" fill="#ADCBF9"/>
<path d="M1172 947.5L1078.7 947.9L1078 945.299L1171.3 945L1172 947.5Z" fill="#ADCBF9"/>
<path d="M1174.1 955.799L1080.9 956.099L1080.2 953.599L1173.5 953.299L1174.1 955.799Z" fill="#ADCBF9"/>
<path d="M1176.3 964L1083 964.4L1082.4 961.9L1175.6 961.5L1176.3 964Z" fill="#ADCBF9"/>
<path d="M1181.5 984.1L1088.3 984.5L1087.6 982L1180.9 981.6L1181.5 984.1Z" fill="#ADCBF9"/>
<path d="M1183.7 992.399L1090.4 992.699L1089.8 990.199L1183 989.899L1183.7 992.399Z" fill="#ADCBF9"/>
<path d="M1185.9 1000.6L1092.6 1001L1091.9 998.5L1185.2 998.1L1185.9 1000.6Z" fill="#ADCBF9"/>
<path d="M1188 1008.9L1094.7 1009.2L1094.1 1006.7L1187.4 1006.4L1188 1008.9Z" fill="#ADCBF9"/>
<path d="M1190.2 1017.1L1096.9 1017.5L1096.2 1015L1189.5 1014.6L1190.2 1017.1Z" fill="#ADCBF9"/>
<path d="M1037.5 1038.1L560.3 1039.9L423 514.1L485.2 447.2L882.8 445.7L1037.5 1038.1Z" fill="white"/>
<path d="M751.3 534.6L583.2 535.2L581.2 527.8L749.4 527.2L751.3 534.6Z" fill="#ADCBF9"/>
<path d="M778.2 555L567.1 555.8L565.1 548.5L776.2 547.7L778.2 555Z" fill="#ADCBF9"/>
<path d="M836.2 656.4L562 657.4L560.1 650L834.3 649L836.2 656.4Z" fill="#ADCBF9"/>
<path d="M842.6 680.6L568.3 681.7L566.4 674.3L840.6 673.3L842.6 680.6Z" fill="#ADCBF9"/>
<path d="M848.9 704.9L574.7 705.9L572.8 698.6L847 697.6L848.9 704.9Z" fill="#ADCBF9"/>
<path d="M855.2 729.2L581 730.2L579.1 722.8L853.3 721.8L855.2 729.2Z" fill="#ADCBF9"/>
<path d="M861.6 753.5L587.4 754.5L585.4 747.1L859.7 746.1L861.6 753.5Z" fill="#ADCBF9"/>
<path d="M877 812.6L602.8 813.6L600.9 806.2L875.1 805.2L877 812.6Z" fill="#ADCBF9"/>
<path d="M883.4 836.8L609.1 837.8L607.2 830.5L881.4 829.5L883.4 836.8Z" fill="#ADCBF9"/>
<path d="M889.7 861.1L615.5 862.1L613.5 854.7L887.8 853.7L889.7 861.1Z" fill="#ADCBF9"/>
<path d="M896 885.4L621.8 886.4L619.9 879L894.1 878L896 885.4Z" fill="#ADCBF9"/>
<path d="M902.4 909.7L628.2 910.7L626.2 903.3L900.5 902.3L902.4 909.7Z" fill="#ADCBF9"/>
<path d="M423 514.1L502.6 513.8L485.2 447.2L423 514.1Z" fill="#ADCBF9"/>
</svg>
