<svg xmlns="http://www.w3.org/2000/svg" viewBox="0 0 1440 320"><path fill="#FBF2E4" fill-opacity="1" d="M0,128L0,64L36.9,64L36.9,320L73.8,320L73.8,288L110.8,288L110.8,224L147.7,224L147.7,64L184.6,64L184.6,288L221.5,288L221.5,64L258.5,64L258.5,0L295.4,0L295.4,128L332.3,128L332.3,0L369.2,0L369.2,192L406.2,192L406.2,160L443.1,160L443.1,192L480,192L480,288L516.9,288L516.9,128L553.8,128L553.8,128L590.8,128L590.8,256L627.7,256L627.7,64L664.6,64L664.6,192L701.5,192L701.5,128L738.5,128L738.5,224L775.4,224L775.4,288L812.3,288L812.3,32L849.2,32L849.2,0L886.2,0L886.2,288L923.1,288L923.1,256L960,256L960,256L996.9,256L996.9,288L1033.8,288L1033.8,160L1070.8,160L1070.8,256L1107.7,256L1107.7,224L1144.6,224L1144.6,128L1181.5,128L1181.5,128L1218.5,128L1218.5,288L1255.4,288L1255.4,192L1292.3,192L1292.3,32L1329.2,32L1329.2,320L1366.2,320L1366.2,64L1403.1,64L1403.1,128L1440,128L1440,0L1403.1,0L1403.1,0L1366.2,0L1366.2,0L1329.2,0L1329.2,0L1292.3,0L1292.3,0L1255.4,0L1255.4,0L1218.5,0L1218.5,0L1181.5,0L1181.5,0L1144.6,0L1144.6,0L1107.7,0L1107.7,0L1070.8,0L1070.8,0L1033.8,0L1033.8,0L996.9,0L996.9,0L960,0L960,0L923.1,0L923.1,0L886.2,0L886.2,0L849.2,0L849.2,0L812.3,0L812.3,0L775.4,0L775.4,0L738.5,0L738.5,0L701.5,0L701.5,0L664.6,0L664.6,0L627.7,0L627.7,0L590.8,0L590.8,0L553.8,0L553.8,0L516.9,0L516.9,0L480,0L480,0L443.1,0L443.1,0L406.2,0L406.2,0L369.2,0L369.2,0L332.3,0L332.3,0L295.4,0L295.4,0L258.5,0L258.5,0L221.5,0L221.5,0L184.6,0L184.6,0L147.7,0L147.7,0L110.8,0L110.8,0L73.8,0L73.8,0L36.9,0L36.9,0L0,0L0,0Z"></path></svg>